<svg xmlns="http://www.w3.org/2000/svg" viewBox="0 0 1024 1024" width="1024" height="1024">
  <rect width="1024" height="1024" fill="#100D0A"></rect>
  <g transform="translate(194.56 194.56) scale(6.6146)">
  <path d="M18 22 C18 14 27 9 48 9 C69 9 78 14 78 22 L78 52 C78 68 66 80 48 87 C30 80 18 68 18 52 Z" fill="#F0E2CA"></path>
  <path d="M24 24 C24 18 32 14 48 14 C64 14 72 18 72 24 L72 34 L24 34 Z" fill="#C98F3C"></path>
  <rect x="24" y="36" width="48" height="4" fill="#C98F3C"></rect>
  <circle cx="37" cy="53" r="8" fill="#100D0A"></circle>
  <circle cx="59" cy="53" r="8" fill="#100D0A"></circle>
  <path d="M41 66 L41 78 L55 72 Z" fill="#B8712F"></path>
  </g>
</svg>